<svg xmlns="http://www.w3.org/2000/svg" viewBox="0 0 300 300"><rect width="300" height="300" fill="white"/><g fill="#111"><path d="M15 15h80v80H15zm15 15v50h50V30zM205 15h80v80h-80zm15 15v50h50V30zM15 205h80v80H15zm15 15v50h50v-50z"/><path d="M115 15h15v15h-15zm30 0h30v15h-30zm-30 30h45v15h-45zm60 0h15v45h-15zm-60 30h30v15h-30zm45 15h30v15h-30zM110 115h25v25h-25zm40 0h15v45h-15zm30 0h35v15h-35zm55 0h50v15h-50zm-120 45h30v15h-30zm60 0h20v20h-20zm40-15h15v45h-15zm30 0h40v15h-40zm-130 45h45v15h-45zm60 0h20v30h-20zm40 15h20v20h-20zm30-15h60v15h-60zm-130 35h30v15h-30zm45 0h15v45h-15zm30 15h35v15h-35zm50-15h15v60h-15zm30 15h35v15h-35zm-135 30h20v20h-20zm45 0h45v15h-45zm75 15h60v15h-60z"/></g><text x="150" y="155" text-anchor="middle" font-family="Arial" font-weight="900" font-size="17" fill="#f12857">DEMO</text></svg>
